<mxfile host="65bd71144e">
    <diagram id="EEniUPORFNaUa7GO9qbn" name="Page-1">
        <mxGraphModel dx="1116" dy="779" grid="1" gridSize="10" guides="1" tooltips="1" connect="1" arrows="1" fold="1" page="1" pageScale="1" pageWidth="1169" pageHeight="827" background="#FFFFFF" math="0" shadow="0">
            <root>
                <mxCell id="0"/>
                <mxCell id="1" parent="0"/>
                <mxCell id="9" value="" style="html=1;points=[];perimeter=orthogonalPerimeter;fillColor=#f0a30a;labelBackgroundColor=none;strokeColor=#BD7000;fontSize=17;fontColor=#000000;" parent="1" vertex="1">
                    <mxGeometry x="80" y="210" width="20" height="990" as="geometry"/>
                </mxCell>
                <mxCell id="2" value="Visisteur" style="shape=umlActor;verticalLabelPosition=bottom;verticalAlign=top;html=1;fillColor=#f0a30a;fontColor=#000000;strokeColor=#BD7000;" parent="1" vertex="1">
                    <mxGeometry x="70" y="80" width="40" height="80" as="geometry"/>
                </mxCell>
                <mxCell id="3" value="&lt;font style=&quot;font-size: 20px;&quot;&gt;Diagramme de séquence&lt;/font&gt;" style="text;html=1;align=center;verticalAlign=middle;whiteSpace=wrap;rounded=0;fillColor=none;fontColor=#000000;strokeColor=#CCCCCC;" parent="1" vertex="1">
                    <mxGeometry x="310" y="20" width="500" height="30" as="geometry"/>
                </mxCell>
                <mxCell id="4" value="Base de donnée" style="shape=umlLifeline;perimeter=lifelinePerimeter;whiteSpace=wrap;html=1;container=1;collapsible=0;recursiveResize=0;outlineConnect=0;labelBackgroundColor=none;strokeColor=#000000;fontSize=17;fillColor=#f0a30a;fontColor=#000000;" parent="1" vertex="1">
                    <mxGeometry x="890" y="120" width="100" height="1090" as="geometry"/>
                </mxCell>
                <mxCell id="5" value="" style="html=1;points=[];perimeter=orthogonalPerimeter;fillColor=#f0a30a;labelBackgroundColor=none;strokeColor=#BD7000;fontSize=20;fontColor=#000000;" parent="4" vertex="1">
                    <mxGeometry x="40" y="80" width="20" height="90" as="geometry"/>
                </mxCell>
                <mxCell id="20" value="" style="html=1;points=[];perimeter=orthogonalPerimeter;fillColor=#f0a30a;labelBackgroundColor=none;strokeColor=#BD7000;fontSize=20;fontColor=#000000;" parent="4" vertex="1">
                    <mxGeometry x="40" y="240" width="20" height="90" as="geometry"/>
                </mxCell>
                <mxCell id="41" value="" style="html=1;points=[];perimeter=orthogonalPerimeter;labelBackgroundColor=none;strokeColor=#BD7000;fontSize=20;fillColor=#f0a30a;fontColor=#000000;" parent="4" vertex="1">
                    <mxGeometry x="40" y="710" width="20" height="290" as="geometry"/>
                </mxCell>
                <mxCell id="6" value="Application" style="shape=umlLifeline;perimeter=lifelinePerimeter;whiteSpace=wrap;html=1;container=1;collapsible=0;recursiveResize=0;outlineConnect=0;labelBackgroundColor=none;strokeColor=#000000;fontSize=17;fillColor=#f0a30a;fontColor=#000000;" parent="1" vertex="1">
                    <mxGeometry x="400" y="120" width="140" height="1090" as="geometry"/>
                </mxCell>
                <mxCell id="7" value="" style="html=1;points=[];perimeter=orthogonalPerimeter;labelBackgroundColor=none;strokeColor=#BD7000;fontSize=20;fillColor=#f0a30a;fontColor=#000000;" parent="6" vertex="1">
                    <mxGeometry x="60" y="80" width="20" height="120" as="geometry"/>
                </mxCell>
                <mxCell id="19" value="" style="html=1;points=[];perimeter=orthogonalPerimeter;labelBackgroundColor=none;strokeColor=#BD7000;fontSize=20;fillColor=#f0a30a;fontColor=#000000;" parent="6" vertex="1">
                    <mxGeometry x="60" y="240" width="20" height="120" as="geometry"/>
                </mxCell>
                <mxCell id="30" value="" style="html=1;points=[];perimeter=orthogonalPerimeter;labelBackgroundColor=none;strokeColor=#BD7000;fontSize=20;fillColor=#f0a30a;fontColor=#000000;" parent="6" vertex="1">
                    <mxGeometry x="60" y="400" width="20" height="660" as="geometry"/>
                </mxCell>
                <mxCell id="97" value="&lt;font style=&quot;font-size: 14px;&quot; color=&quot;#006600&quot;&gt;&lt;b&gt;Is form is valid&lt;/b&gt;&lt;/font&gt;" style="shape=umlFrame;whiteSpace=wrap;html=1;fontSize=14;fillColor=#FFFFFF;strokeColor=#000000;width=910;height=30;align=left;" parent="6" vertex="1">
                    <mxGeometry x="-320" y="740" width="910" height="170" as="geometry"/>
                </mxCell>
                <mxCell id="98" value="&lt;font color=&quot;#cc0000&quot; style=&quot;font-size: 14px;&quot;&gt;&lt;b style=&quot;&quot;&gt;Else&lt;/b&gt;&lt;/font&gt;" style="shape=umlFrame;whiteSpace=wrap;html=1;fontSize=14;fillColor=#FFFFFF;strokeColor=#000000;width=910;height=30;align=left;" parent="6" vertex="1">
                    <mxGeometry x="-320" y="910" width="910" height="170" as="geometry"/>
                </mxCell>
                <mxCell id="8" value="" style="endArrow=none;dashed=1;html=1;fontSize=20;strokeColor=#000000;startArrow=none;" parent="1" source="9" edge="1">
                    <mxGeometry width="50" height="50" relative="1" as="geometry">
                        <mxPoint x="140" y="190" as="sourcePoint"/>
                        <mxPoint x="90" y="1200" as="targetPoint"/>
                    </mxGeometry>
                </mxCell>
                <mxCell id="10" value="" style="endArrow=none;dashed=1;html=1;fontSize=20;strokeColor=#000000;" parent="1" target="9" edge="1">
                    <mxGeometry width="50" height="50" relative="1" as="geometry">
                        <mxPoint x="90" y="190" as="sourcePoint"/>
                        <mxPoint x="140" y="800" as="targetPoint"/>
                    </mxGeometry>
                </mxCell>
                <mxCell id="11" value="" style="html=1;verticalAlign=bottom;labelBackgroundColor=none;endArrow=block;endFill=1;strokeColor=#666666;fontSize=17;entryX=0.05;entryY=0.242;entryDx=0;entryDy=0;entryPerimeter=0;exitX=1;exitY=0.02;exitDx=0;exitDy=0;exitPerimeter=0;fillColor=none;" parent="1" source="9" target="7" edge="1">
                    <mxGeometry width="160" relative="1" as="geometry">
                        <mxPoint x="150" y="229" as="sourcePoint"/>
                        <mxPoint x="510" y="360" as="targetPoint"/>
                    </mxGeometry>
                </mxCell>
                <mxCell id="79" value="&lt;font style=&quot;font-size: 14px;&quot;&gt;Accède à la page des véhicules d'occasions&lt;/font&gt;" style="edgeLabel;html=1;align=center;verticalAlign=middle;resizable=0;points=[];" parent="11" vertex="1" connectable="0">
                    <mxGeometry x="0.1247" relative="1" as="geometry">
                        <mxPoint x="-23" as="offset"/>
                    </mxGeometry>
                </mxCell>
                <mxCell id="13" value="" style="html=1;verticalAlign=bottom;labelBackgroundColor=none;endArrow=block;endFill=1;strokeColor=#000000;fontSize=17;fontColor=#000000;exitX=1.15;exitY=0.333;exitDx=0;exitDy=0;exitPerimeter=0;" parent="1" source="7" target="5" edge="1">
                    <mxGeometry width="160" relative="1" as="geometry">
                        <mxPoint x="500" y="240" as="sourcePoint"/>
                        <mxPoint x="760" y="240" as="targetPoint"/>
                    </mxGeometry>
                </mxCell>
                <mxCell id="80" value="Interroge la BDD des véhicules d'occasions disponible" style="edgeLabel;html=1;align=center;verticalAlign=middle;resizable=0;points=[];fontSize=14;" parent="13" vertex="1" connectable="0">
                    <mxGeometry x="-0.4855" y="-2" relative="1" as="geometry">
                        <mxPoint x="112" as="offset"/>
                    </mxGeometry>
                </mxCell>
                <mxCell id="15" value="" style="html=1;verticalAlign=bottom;labelBackgroundColor=none;endArrow=block;endFill=1;dashed=1;strokeColor=#666666;fontSize=17;fontColor=#000000;exitX=-0.1;exitY=0.9;exitDx=0;exitDy=0;exitPerimeter=0;" parent="1" source="5" edge="1">
                    <mxGeometry width="160" relative="1" as="geometry">
                        <mxPoint x="350" y="350" as="sourcePoint"/>
                        <mxPoint x="480" y="280" as="targetPoint"/>
                    </mxGeometry>
                </mxCell>
                <mxCell id="81" value="Renvoi la liste des véhicules disponibles" style="edgeLabel;html=1;align=center;verticalAlign=middle;resizable=0;points=[];fontSize=14;" parent="15" vertex="1" connectable="0">
                    <mxGeometry x="-0.317" y="-1" relative="1" as="geometry">
                        <mxPoint x="-65" as="offset"/>
                    </mxGeometry>
                </mxCell>
                <mxCell id="17" value="" style="html=1;verticalAlign=bottom;labelBackgroundColor=none;endArrow=block;endFill=1;dashed=1;strokeColor=#666666;fontSize=17;fontColor=#000000;exitX=-0.1;exitY=0.85;exitDx=0;exitDy=0;exitPerimeter=0;" parent="1" source="7" edge="1">
                    <mxGeometry width="160" relative="1" as="geometry">
                        <mxPoint x="350" y="340" as="sourcePoint"/>
                        <mxPoint x="110" y="300" as="targetPoint"/>
                    </mxGeometry>
                </mxCell>
                <mxCell id="82" value="Affiche la liste des véhicules disponible" style="edgeLabel;html=1;align=center;verticalAlign=middle;resizable=0;points=[];fontSize=14;" parent="17" vertex="1" connectable="0">
                    <mxGeometry x="-0.161" y="2" relative="1" as="geometry">
                        <mxPoint x="-22" y="-3" as="offset"/>
                    </mxGeometry>
                </mxCell>
                <mxCell id="21" value="" style="html=1;verticalAlign=bottom;labelBackgroundColor=none;endArrow=block;endFill=1;strokeColor=#666666;fontSize=17;fontColor=#000000;exitX=1.1;exitY=0.182;exitDx=0;exitDy=0;exitPerimeter=0;" parent="1" source="9" edge="1">
                    <mxGeometry width="160" relative="1" as="geometry">
                        <mxPoint x="150" y="390" as="sourcePoint"/>
                        <mxPoint x="460" y="390" as="targetPoint"/>
                    </mxGeometry>
                </mxCell>
                <mxCell id="83" value="Applique un filtre" style="edgeLabel;html=1;align=center;verticalAlign=middle;resizable=0;points=[];fontSize=14;" parent="21" vertex="1" connectable="0">
                    <mxGeometry x="0.1732" y="2" relative="1" as="geometry">
                        <mxPoint x="-22" as="offset"/>
                    </mxGeometry>
                </mxCell>
                <mxCell id="23" value="" style="html=1;verticalAlign=bottom;labelBackgroundColor=none;endArrow=block;endFill=1;strokeColor=#666666;fontSize=17;fontColor=#000000;entryX=0.1;entryY=0.456;entryDx=0;entryDy=0;entryPerimeter=0;" parent="1" target="20" edge="1">
                    <mxGeometry width="160" relative="1" as="geometry">
                        <mxPoint x="500" y="400" as="sourcePoint"/>
                        <mxPoint x="510" y="440" as="targetPoint"/>
                    </mxGeometry>
                </mxCell>
                <mxCell id="84" value="Récupère les véhicules correspondant" style="edgeLabel;html=1;align=center;verticalAlign=middle;resizable=0;points=[];fontSize=14;" parent="23" vertex="1" connectable="0">
                    <mxGeometry x="-0.4074" y="2" relative="1" as="geometry">
                        <mxPoint x="72" as="offset"/>
                    </mxGeometry>
                </mxCell>
                <mxCell id="25" value="" style="html=1;verticalAlign=bottom;labelBackgroundColor=none;endArrow=block;endFill=1;dashed=1;strokeColor=#666666;fontSize=17;fontColor=#000000;entryX=1.15;entryY=0.667;entryDx=0;entryDy=0;entryPerimeter=0;" parent="1" target="19" edge="1">
                    <mxGeometry width="160" relative="1" as="geometry">
                        <mxPoint x="930" y="440" as="sourcePoint"/>
                        <mxPoint x="500" y="440" as="targetPoint"/>
                    </mxGeometry>
                </mxCell>
                <mxCell id="85" value="Renvoi la liste des véhicules filtrés" style="edgeLabel;html=1;align=center;verticalAlign=middle;resizable=0;points=[];fontSize=14;" parent="25" vertex="1" connectable="0">
                    <mxGeometry x="0.2528" relative="1" as="geometry">
                        <mxPoint x="60" as="offset"/>
                    </mxGeometry>
                </mxCell>
                <mxCell id="28" value="" style="html=1;verticalAlign=bottom;labelBackgroundColor=none;endArrow=block;endFill=1;dashed=1;fontColor=#666666;exitX=-0.2;exitY=0.842;exitDx=0;exitDy=0;exitPerimeter=0;strokeColor=#666666;" parent="1" source="19" edge="1">
                    <mxGeometry width="160" relative="1" as="geometry">
                        <mxPoint x="500" y="400" as="sourcePoint"/>
                        <mxPoint x="110" y="461" as="targetPoint"/>
                    </mxGeometry>
                </mxCell>
                <mxCell id="86" value="Affiche les voitures filtrées disponible" style="edgeLabel;html=1;align=center;verticalAlign=middle;resizable=0;points=[];fontSize=14;" parent="28" vertex="1" connectable="0">
                    <mxGeometry x="-0.3988" relative="1" as="geometry">
                        <mxPoint x="-52" as="offset"/>
                    </mxGeometry>
                </mxCell>
                <mxCell id="32" value="" style="html=1;verticalAlign=bottom;labelBackgroundColor=none;endArrow=block;endFill=1;strokeColor=#666666;fontSize=17;fontColor=#666666;exitX=1.05;exitY=0.33;exitDx=0;exitDy=0;exitPerimeter=0;" parent="1" source="9" edge="1">
                    <mxGeometry width="160" relative="1" as="geometry">
                        <mxPoint x="120" y="541" as="sourcePoint"/>
                        <mxPoint x="460" y="537" as="targetPoint"/>
                    </mxGeometry>
                </mxCell>
                <mxCell id="87" value="Sélectionne un véhicule" style="edgeLabel;html=1;align=center;verticalAlign=middle;resizable=0;points=[];fontSize=14;" parent="32" vertex="1" connectable="0">
                    <mxGeometry x="-0.1253" y="-2" relative="1" as="geometry">
                        <mxPoint x="22" as="offset"/>
                    </mxGeometry>
                </mxCell>
                <mxCell id="38" value="" style="html=1;verticalAlign=bottom;labelBackgroundColor=none;endArrow=block;endFill=1;dashed=1;strokeColor=#666666;fontSize=17;fontColor=#000000;entryX=0.95;entryY=0.382;entryDx=0;entryDy=0;entryPerimeter=0;" parent="1" target="9" edge="1">
                    <mxGeometry width="160" relative="1" as="geometry">
                        <mxPoint x="460" y="590" as="sourcePoint"/>
                        <mxPoint x="110" y="640" as="targetPoint"/>
                    </mxGeometry>
                </mxCell>
                <mxCell id="88" value="Affiche les détails du véhicule" style="edgeLabel;html=1;align=center;verticalAlign=middle;resizable=0;points=[];fontSize=14;" parent="38" vertex="1" connectable="0">
                    <mxGeometry x="0.1247" relative="1" as="geometry">
                        <mxPoint x="23" as="offset"/>
                    </mxGeometry>
                </mxCell>
                <mxCell id="42" value="" style="html=1;verticalAlign=bottom;labelBackgroundColor=none;endArrow=block;endFill=1;strokeColor=#666666;fontSize=17;fontColor=#000000;" parent="1" edge="1">
                    <mxGeometry width="160" relative="1" as="geometry">
                        <mxPoint x="100" y="640" as="sourcePoint"/>
                        <mxPoint x="460" y="640" as="targetPoint"/>
                    </mxGeometry>
                </mxCell>
                <mxCell id="89" value="Clique sur le lien qui l'emmène&lt;br&gt;vers la page du formulaire" style="edgeLabel;html=1;align=center;verticalAlign=middle;resizable=0;points=[];fontSize=14;" parent="42" vertex="1" connectable="0">
                    <mxGeometry x="0.1278" y="3" relative="1" as="geometry">
                        <mxPoint x="-23" as="offset"/>
                    </mxGeometry>
                </mxCell>
                <mxCell id="44" value="" style="html=1;verticalAlign=bottom;labelBackgroundColor=none;endArrow=block;endFill=1;strokeColor=#666666;fontSize=17;fontColor=#000000;" parent="1" target="4" edge="1">
                    <mxGeometry width="160" relative="1" as="geometry">
                        <mxPoint x="490" y="840" as="sourcePoint"/>
                        <mxPoint x="930" y="860" as="targetPoint"/>
                    </mxGeometry>
                </mxCell>
                <mxCell id="92" value="Analyse du formulaire" style="edgeLabel;html=1;align=center;verticalAlign=middle;resizable=0;points=[];fontSize=14;" parent="44" vertex="1" connectable="0">
                    <mxGeometry x="0.1435" y="2" relative="1" as="geometry">
                        <mxPoint x="-37" as="offset"/>
                    </mxGeometry>
                </mxCell>
                <mxCell id="53" value="" style="html=1;verticalAlign=bottom;labelBackgroundColor=none;endArrow=block;endFill=1;dashed=1;strokeColor=#666666;fontSize=17;fontColor=#006600;entryX=1.05;entryY=0.348;entryDx=0;entryDy=0;entryPerimeter=0;" parent="1" edge="1">
                    <mxGeometry width="160" relative="1" as="geometry">
                        <mxPoint x="930" y="943" as="sourcePoint"/>
                        <mxPoint x="481" y="942.72" as="targetPoint"/>
                    </mxGeometry>
                </mxCell>
                <mxCell id="94" value="Tous les champs sont requis vous pouvez&lt;br&gt;afficher le message suivant : Votre formulaire&lt;br&gt;&amp;nbsp;à bien été envoyé" style="edgeLabel;html=1;align=center;verticalAlign=middle;resizable=0;points=[];fontSize=14;" parent="53" vertex="1" connectable="0">
                    <mxGeometry x="0.0779" y="1" relative="1" as="geometry">
                        <mxPoint x="22" y="1" as="offset"/>
                    </mxGeometry>
                </mxCell>
                <mxCell id="55" value="" style="html=1;verticalAlign=bottom;labelBackgroundColor=none;endArrow=block;endFill=1;dashed=1;strokeColor=#666666;fontSize=16;fontColor=#000000;exitX=-0.25;exitY=0.691;exitDx=0;exitDy=0;exitPerimeter=0;" parent="1" source="30" edge="1">
                    <mxGeometry x="0.0346" y="-20" width="160" relative="1" as="geometry">
                        <mxPoint x="440" y="920" as="sourcePoint"/>
                        <mxPoint x="110" y="976" as="targetPoint"/>
                        <mxPoint as="offset"/>
                    </mxGeometry>
                </mxCell>
                <mxCell id="93" value="Affiche : Votre formulaire à bien été envoyé" style="edgeLabel;html=1;align=center;verticalAlign=middle;resizable=0;points=[];fontSize=14;" parent="55" vertex="1" connectable="0">
                    <mxGeometry x="-0.1072" y="-1" relative="1" as="geometry">
                        <mxPoint x="-21" as="offset"/>
                    </mxGeometry>
                </mxCell>
                <mxCell id="57" value="" style="html=1;verticalAlign=bottom;labelBackgroundColor=none;endArrow=block;endFill=1;dashed=1;strokeColor=#666666;fontSize=16;fontColor=#000000;exitX=-0.15;exitY=0.979;exitDx=0;exitDy=0;exitPerimeter=0;" parent="1" source="41" edge="1">
                    <mxGeometry width="160" relative="1" as="geometry">
                        <mxPoint x="840" y="1110" as="sourcePoint"/>
                        <mxPoint x="480" y="1110" as="targetPoint"/>
                    </mxGeometry>
                </mxCell>
                <mxCell id="96" value="Tous les champs requis ne sont pas remplit,&lt;br&gt;vous pouvez afficher un message d'erreur :&amp;nbsp;&lt;br&gt;Attention, tous les champs ne sont pas remplit" style="edgeLabel;html=1;align=center;verticalAlign=middle;resizable=0;points=[];fontSize=14;" parent="57" vertex="1" connectable="0">
                    <mxGeometry x="0.0604" relative="1" as="geometry">
                        <mxPoint as="offset"/>
                    </mxGeometry>
                </mxCell>
                <mxCell id="67" value="" style="html=1;verticalAlign=bottom;labelBackgroundColor=none;endArrow=block;endFill=1;dashed=1;strokeColor=#666666;fontSize=15;fontColor=#000000;entryX=1;entryY=0.556;entryDx=0;entryDy=0;entryPerimeter=0;" parent="1" edge="1">
                    <mxGeometry width="160" relative="1" as="geometry">
                        <mxPoint x="460" y="690.56" as="sourcePoint"/>
                        <mxPoint x="100" y="690" as="targetPoint"/>
                    </mxGeometry>
                </mxCell>
                <mxCell id="90" value="Affiche un formulaire" style="edgeLabel;html=1;align=center;verticalAlign=middle;resizable=0;points=[];fontSize=14;" parent="67" vertex="1" connectable="0">
                    <mxGeometry x="-0.3056" y="1" relative="1" as="geometry">
                        <mxPoint x="-55" as="offset"/>
                    </mxGeometry>
                </mxCell>
                <mxCell id="69" value="" style="endArrow=classic;html=1;labelBackgroundColor=#CCCCCC;strokeColor=#666666;fontSize=15;fontColor=#000000;" parent="1" edge="1">
                    <mxGeometry width="50" height="50" relative="1" as="geometry">
                        <mxPoint x="100" y="800" as="sourcePoint"/>
                        <mxPoint x="460" y="800" as="targetPoint"/>
                    </mxGeometry>
                </mxCell>
                <mxCell id="91" value="Remplit le formulaire" style="edgeLabel;html=1;align=center;verticalAlign=middle;resizable=0;points=[];fontSize=14;" parent="69" vertex="1" connectable="0">
                    <mxGeometry x="0.1389" y="2" relative="1" as="geometry">
                        <mxPoint x="-25" as="offset"/>
                    </mxGeometry>
                </mxCell>
                <mxCell id="73" value="" style="html=1;verticalAlign=bottom;labelBackgroundColor=none;endArrow=block;endFill=1;dashed=1;strokeColor=#666666;fontSize=15;fontColor=#000000;entryX=1.1;entryY=0.958;entryDx=0;entryDy=0;entryPerimeter=0;exitX=-0.05;exitY=0.971;exitDx=0;exitDy=0;exitPerimeter=0;" parent="1" source="30" target="9" edge="1">
                    <mxGeometry width="160" relative="1" as="geometry">
                        <mxPoint x="180" y="1190" as="sourcePoint"/>
                        <mxPoint x="340" y="1190" as="targetPoint"/>
                    </mxGeometry>
                </mxCell>
                <mxCell id="95" value="Affiche : Attention tous les&amp;nbsp;&lt;br&gt;champs ne sont pas remplit" style="edgeLabel;html=1;align=center;verticalAlign=middle;resizable=0;points=[];fontSize=14;" parent="73" vertex="1" connectable="0">
                    <mxGeometry x="0.1092" relative="1" as="geometry">
                        <mxPoint x="29" as="offset"/>
                    </mxGeometry>
                </mxCell>
            </root>
        </mxGraphModel>
    </diagram>
</mxfile>